<?xml version="1.0" encoding="UTF-8" standalone="no"?>
<svg xmlns="http://www.w3.org/2000/svg" xmlns:xlink="http://www.w3.org/1999/xlink" version="1.1" width="686.37904" height="254.00276" viewBox="616.81298 345.5004 686.37904 254.00276"><g fill="#0e4725" fill-rule="nonzero" stroke="none" stroke-width="1" stroke-linecap="butt" stroke-linejoin="miter" stroke-miterlimit="10" font-family="none" font-weight="none" font-size="none"><g id="Group-1"><g id="Group-1-1"><g id="Group-1-2"><g id="Group-1-3"><g id="Group-1-4"><path d="M1292.99005,407.09379c-0.37676,-4.38216 -0.84409,-7.89839 -0.57237,-11.7664c1.32589,-0.43953 3.89395,-0.73063 5.1011,0.45347c1.26728,2.68883 -0.67132,12.15508 -4.52873,11.31293M1275.94222,388.44828c1.2513,-0.40017 2.38539,-0.75031 3.42433,-0.91186c0.40416,0.26978 0.39198,1.26282 0.28542,1.80157c-0.51681,2.62487 -0.07383,4.85941 -0.10504,7.47936c-1.7643,-1.44487 -3.03768,-6.61588 -3.60472,-8.36907M1275.86459,431.8976c-0.2527,2.78887 5.72447,3.21938 8.47444,4.97175c0.58683,0.38213 0.99937,0.0779 0.90118,-0.73965c-0.58074,-5.30714 -0.73069,-27.64353 0.54269,-30.93425c1.33655,6.35184 2.48586,13.25472 3.2957,20.89235c0.44526,4.20996 0.81441,8.35021 1.49791,13.09154c0.16517,1.14556 -0.42623,1.79173 -0.09971,3.12344c1.0085,1.71055 5.27616,3.94919 4.66497,1.70563c-0.70481,-2.55189 0.10808,-3.68433 0.0959,-5.63104c-0.07231,-9.53022 -1.17519,-18.87511 -1.91653,-27.56235c-0.13548,-1.65561 0.44146,-2.87579 1.70265,-3.58347c4.46936,-2.46907 3.01713,-8.74382 3.58417,-11.87874c0.19333,-1.03732 1.87467,-1.84585 1.2787,-3.48588c-0.56019,-1.50637 -0.53051,-3.34238 -0.49778,-5.09721c0.0959,-4.91025 -0.22682,-9.50316 0.17963,-14.48229c0.30826,-4.38216 -3.09095,-1.2292 -2.67309,-3.78929c0.43384,-3.0767 -2.79944,-0.63715 -3.03235,-1.50801c-0.81137,-2.58551 -2.87555,-3.5031 -5.42763,-2.72901c-2.54142,0.75687 -3.16098,-2.57731 -2.45389,-4.73477c0.62869,-1.87947 0.07611,-3.20216 -0.22606,-4.76675c-0.50844,-2.78887 -3.78282,-2.24848 -5.74426,0.8643c-0.7695,1.20624 -1.52683,2.37968 -2.27426,3.51458c-0.46886,0.71095 -0.80223,1.35549 -0.81593,1.9787c-0.01598,0.63305 0.28542,0.98238 0.75504,1.18656c1.46289,0.67569 0.41786,4.34362 0.92934,6.05007c0.41938,1.45553 1.49638,1.37107 3.16631,0.44281c-1.64785,1.98526 -2.95547,3.66875 -3.05138,5.74995c-0.12254,2.64455 -0.50159,5.16036 -0.73449,7.54742c-0.11493,1.17262 -0.53431,2.09432 -1.79551,2.53139c-1.64861,0.57155 -3.36496,1.16606 -5.21071,1.53671c-1.69123,0.39525 -7.88456,-0.29439 -10.53558,-0.77409c-0.46505,-0.0861 -1.26348,0.04756 -1.52835,0.19598c-0.29075,0.164 -0.31587,0.74539 0.2801,0.77409c1.37689,0.06642 2.62895,-0.2296 3.88938,-0.06314c2.02461,0.27143 3.9967,0.246 5.68413,0.63715c0.29075,0.69865 1.20107,1.22756 1.86021,1.66299c1.16758,0.76425 2.06343,1.14228 3.49664,0.30915c0.57009,-0.33621 1.48953,0.25666 1.67297,0.77573c0.45287,1.26774 0.89661,2.54287 1.33807,3.84095c0.53127,1.55967 1.22999,2.96599 2.37625,4.45022c0.04034,5.00783 0.10732,10.10587 0.20551,15.85089c0.09134,4.30836 0.20018,8.98409 0.33033,14.2617c0.12254,4.34526 -3.9967,1.9787 -4.1847,3.81389" id="CompoundPath-1"/></g></g></g><g id="Group-1-5"><g id="Group-1-6"><g id="Group-1-7"><path d="M726.82387,445.3397c2.54218,1.11522 4.57059,2.81019 7.37612,3.3104c-5.18939,4.26818 -5.26246,-2.59945 -12.02588,0.10414c-0.44755,0.17958 -1.09907,0.03034 -1.57706,0.25912c-0.76189,0.36573 0.14766,3.66547 0.58379,3.92459c1.46822,0.87332 5.51211,-1.05782 6.40188,2.42478c1.46518,5.73683 7.60827,2.14352 7.82519,13.57535c-2.8649,-0.92744 -1.55804,-6.29444 -5.62476,-7.6573c-4.44729,-1.48997 -4.34225,-6.6495 -8.14791,-4.85941c-0.99632,0.46905 -0.80147,3.42192 0.19409,4.20914c8.0444,6.36414 1.00013,12.63397 7.30915,17.40646c0.49397,0.37393 1.08613,2.24684 0.23671,2.25586c-9.15413,-3.3432 -2.28492,-9.8984 -8.09463,-15.88205c-0.81746,0.02542 -1.35481,1.46783 -1.55956,2.23208c-1.14931,4.29934 -3.77597,7.08575 -7.12876,9.23337c-1.53672,0.9832 -1.92642,2.12548 -3.6854,2.08776c-2.10148,-0.04428 -2.4478,-1.10538 -3.9929,-2.3477c-5.79069,-4.65769 -4.48915,-4.31902 -7.47051,-12.12802c-6.98186,4.15584 1.09831,13.09646 -8.73018,16.84393c-0.57161,-0.83068 0.00761,-1.95 0.64544,-2.60929c5.75339,-5.95659 -1.11886,-11.36213 6.14309,-16.95299c0.61652,-0.47397 2.26817,-2.15746 1.3061,-2.71097c-1.90663,-1.09636 -3.8734,1.13572 -5.45503,1.9951l-4.79589,2.60437c-1.13865,0.61829 -1.57935,2.78231 -1.89293,3.93853c-0.56248,2.07054 -1.87238,1.72941 -2.96765,2.52073l-17.04249,12.31417c-0.11417,3.51868 0.68426,6.30428 1.34035,9.64666l-12.68273,22.70212c-0.72231,1.9295 -2.2598,3.45554 -4.42217,3.45718l-32.07636,0.02378l42.28466,-93.65639l35.26322,-78.1048l29.42458,0.03854l34.46936,76.73948l-21.93809,11.91974l-27.47228,-53.90779l-35.63465,71.31262c-2.29862,4.60028 -4.34911,8.74546 -4.61398,14.49541c7.53748,-3.26366 14.56958,-6.19357 21.27362,-10.26741c2.12203,-1.28988 3.63364,-3.20708 6.65001,-2.73065c0.96664,0.15252 1.85716,-3.13246 1.17823,-3.76797c-1.58696,-0.81263 -3.95636,-1.06356 -5.80439,-1.54409c-2.42344,2.02954 -5.44285,3.24726 -8.20195,0.86266c3.14652,-1.08324 5.39794,-2.114 7.88075,-3.43422c2.01015,-1.0693 4.47317,0.61337 6.57465,0.46905c1.27413,-0.08774 1.74375,-2.0771 2.31993,-3.07588c-1.71711,-1.15294 -3.21806,-1.74745 -4.8408,-2.71753c-2.87175,-1.71711 -0.1507,-3.21528 -2.55055,-9.06527c-0.21921,-0.53301 -0.08981,-1.41535 0.19789,-1.61789c0.51605,-0.36327 1.24902,0.01804 1.70341,0.48381c3.35278,3.4334 -2.47444,7.04311 6.19104,10.18869c-1.4903,-4.24768 -0.48256,-7.38752 2.87023,-9.5376c1.57478,-1.01026 0.84714,-4.01151 -0.26259,-5.12345l-3.97767,-3.98199c-0.7657,-0.76671 -0.73601,-2.30178 0.19028,-2.54451c1.66612,2.68637 3.89471,5.5843 5.97184,7.72864c1.71711,-0.24436 3.95332,-1.29562 5.66206,0.23452c2.37549,-3.42356 5.55474,-4.72247 6.33642,-8.44206c0.9537,0.90612 0.90803,2.56747 -0.05785,3.43996l-3.39693,3.06768c-1.17671,1.06274 -2.03907,4.17634 -0.41329,5.2153c3.21197,2.05168 4.38031,5.10377 3.48903,9.5253c7.8739,-2.53385 2.63275,-6.11895 5.73969,-9.77704c0.41329,-0.48545 1.20639,-0.83806 1.67906,-0.72079c0.42243,0.10414 0.94913,1.15786 0.56704,1.62199c-1.8016,2.18862 -0.96131,4.79299 -1.641,7.30551c-0.67436,2.49449 -4.04846,2.89219 -6.1781,4.21652c0.14233,1.02748 1.20944,3.50228 2.57871,3.65645c2.09235,0.23534 4.24483,-1.41535 6.4993,-0.42641" id="Path-1"/></g><g id="Group-1-8"><path d="M752.49371,492.34846c-0.60434,-1.04224 -1.52835,-1.2661 -2.15857,-1.99674l0.17278,-17.65575c0.06013,-6.17307 -0.83192,-12.0124 -3.78815,-17.33102l-7.49029,-15.67951l21.19903,-12.48309l10.71216,23.63858l29.75415,66.62213l-31.39896,-0.16236c-1.99949,-0.00984 -3.51795,-1.39567 -4.36813,-3.16772z" id="Path-1-1"/></g></g></g><text x="1670.10308" y="631.04057" transform="scale(0.47955,0.82002)" id="PointText-1" font-family="&quot;Arial Black&quot;" font-weight="900" font-size="143.935" text-anchor="start">LPHA RANGE</text><text x="1691.13991" y="704.52887" transform="scale(0.43014,0.82002)" id="PointText-1-1" font-family="&quot;Adobe Clean&quot;" font-weight="bold" font-size="88.5157" text-anchor="start">SERVIZI DI DISINFESTAZIONE</text></g></g></g></svg>