<?xml version="1.0" encoding="UTF-8" standalone="no"?>
<svg xmlns="http://www.w3.org/2000/svg" xmlns:xlink="http://www.w3.org/1999/xlink" version="1.1" width="699.99787" height="606.95671" viewBox="610.00107 169.02164 699.99787 606.95671"><g fill="none" fill-rule="nonzero" stroke="none" stroke-width="1" stroke-linecap="butt" stroke-linejoin="miter" stroke-miterlimit="10" font-family="none" font-weight="none" font-size="none"><g id="Group-1"><g id="Group-1-1"><g id="Group-1-2" fill="none" font-family="sans-serif" font-weight="normal" font-size="12" text-anchor="start"/><g id="Group-1-3" fill="#0e4725"><g id="Group-1-4"><g id="Group-1-5"><path d="M1056.38219,533.0972c-19.73343,15.0649 -20.01126,-9.17496 -45.73012,0.36759c-1.70186,0.63385 -4.1794,0.10708 -5.99702,0.9146c-2.89721,1.29087 0.5615,12.93758 2.21994,13.85217c5.58313,3.08244 20.96059,-3.73366 24.34405,8.55849c5.57156,20.24861 28.93155,7.56573 29.75643,47.91534c-10.8942,-3.27347 -5.92465,-22.21673 -21.38896,-27.02708c-16.91148,-5.25897 -16.51204,-23.47 -30.98361,-17.15171c-3.78865,1.65555 -3.04771,12.07797 0.73805,14.85651c30.58999,22.46276 3.80313,44.59268 27.79408,61.43758c1.8784,1.31981 4.13017,7.93041 0.90012,7.96225c-34.8099,-11.80011 -8.68873,-34.93725 -30.78101,-56.05705c-3.10849,0.08972 -5.15187,5.1808 -5.93045,7.87831c-4.3704,15.17489 -14.35869,25.00975 -27.10813,32.58995c-5.84362,3.47029 -7.32551,7.50206 -14.01426,7.36893c-7.99119,-0.15629 -9.30809,-3.90153 -15.18355,-8.28641c-22.01993,-16.43969 -17.07066,-15.24435 -28.40768,-42.80688c-26.54954,14.66837 4.17649,46.22507 -33.19776,59.45207c-2.17362,-2.93195 0.02896,-6.88268 2.45438,-9.20971c21.87812,-21.02428 -4.25464,-40.10358 23.35999,-59.83701c2.34439,-1.67292 8.62504,-7.61494 4.96664,-9.5686c-7.25025,-3.8697 -14.72915,4.00863 -20.74354,7.04186l-18.23706,9.19234c-4.3299,2.1823 -6.00571,9.8204 -7.19816,13.90138c-2.13889,7.30815 -7.12001,6.10408 -11.28493,8.8971l-64.80656,43.4639c-0.43415,12.41949 2.60199,22.25146 5.09688,34.04869l-48.22792,80.12904c-2.7467,6.81031 -8.59322,12.19664 -16.81596,12.20244l-121.975,0.08392l160.79353,-330.5681l134.09349,-275.67747l111.89122,0.13602l131.07474,270.85844l-83.42278,42.07174l-104.46731,-190.2721l-135.50593,251.70388c-8.74083,16.23709 -16.53809,30.86784 -17.54531,51.16276c28.66238,-11.51937 55.40292,-21.86075 80.89602,-36.23969c8.06934,-4.55275 13.81744,-11.31966 25.2876,-9.63806c3.67577,0.53834 7.06212,-11.05627 4.4804,-13.29935c-6.03464,-2.86826 -15.04462,-3.75394 -22.07201,-5.45c-9.21548,7.16342 -20.69724,11.46148 -31.18911,3.04482c11.96509,-3.82338 20.52646,-7.46153 29.9677,-12.12138c7.64387,-3.77419 17.00987,2.16494 25.00106,1.65553c4.84508,-0.3097 6.63088,-7.33129 8.82186,-10.85656c-6.52957,-4.06941 -12.23715,-6.16779 -18.40783,-9.59176c-10.92025,-6.06069 -0.57307,-11.3486 -9.69884,-31.99663c-0.83356,-1.88131 -0.34152,-4.99558 0.75253,-5.71046c1.96234,-1.28219 4.74957,0.06367 6.47747,1.70763c12.74944,12.11849 -9.40942,24.85925 23.54233,35.96184c-5.66707,-14.99255 -1.83499,-26.07486 10.91445,-33.66375c5.98834,-3.5658 3.22137,-14.15898 -0.99854,-18.08367l-15.12568,-14.05477c-2.91167,-2.70619 -2.79881,-8.12434 0.72357,-8.98107c6.33566,9.48177 14.8102,19.71027 22.70879,27.2789c6.52957,-0.8625 15.03305,-4.57302 21.53078,0.82777c9.03314,-12.08376 21.1227,-16.66833 24.09515,-29.79693c3.62658,3.19821 3.45292,9.06208 -0.21996,12.14163l-12.91732,10.82762c-4.4746,3.75103 -7.75386,14.74074 -1.57161,18.40783c12.21401,7.24157 16.65676,18.01421 13.26753,33.62033c29.94166,-8.94343 10.01143,-21.59735 21.82602,-34.50888c1.57161,-1.71343 4.58748,-2.95799 6.38485,-2.5441c1.60634,0.36757 3.60921,4.08675 2.15628,5.72494c-6.85084,7.72493 -3.65552,16.91727 -6.24015,25.78544c-2.56435,8.8045 -15.39485,10.20825 -23.49314,14.88256c0.54123,3.62658 4.59907,12.36159 9.80595,12.90573c7.95646,0.83067 16.14158,-4.99558 24.71453,-1.50504c9.667,3.93626 17.38033,9.9188 28.04878,11.68433z" id="Path-1-1"/></g><g id="Group-1-6"><path d="M1125.94672,687.33424c-2.29809,-3.67868 -5.81179,-4.4688 -8.20828,-7.04764l0.65702,-62.31744c0.22864,-21.78838 -3.16348,-42.39878 -14.40499,-61.1713l-28.48292,-55.34216l80.61239,-44.06011l40.73455,83.43435l113.14445,235.14841l-119.39905,-0.57307c-7.60337,-0.03473 -13.37752,-4.92611 -16.61046,-11.18071z" id="Path-1"/></g></g></g></g></g></g></svg>